<svg id="SvgjsSvg1006" width="966.5" height="988.65625" xmlns="http://www.w3.org/2000/svg" version="1.1" xmlns:xlink="http://www.w3.org/1999/xlink" xmlns:svgjs="http://svgjs.com/svgjs"><defs id="SvgjsDefs1007"><marker id="SvgjsMarker1010" markerWidth="16" markerHeight="12" refX="11" refY="6" viewBox="0 0 16 12" orient="auto" markerUnits="userSpaceOnUse" stroke-dasharray="0,0"><path id="SvgjsPath1011" d="M0,0 L16,6 L0,12 L0,0" fill="#e57373" stroke="#e57373" stroke-width="1"></path></marker><marker id="SvgjsMarker1114" markerWidth="16" markerHeight="12" refX="11" refY="6" viewBox="0 0 16 12" orient="auto" markerUnits="userSpaceOnUse" stroke-dasharray="0,0"><path id="SvgjsPath1115" d="M0,0 L16,6 L0,12 L0,0" fill="#e57373" stroke="#e57373" stroke-width="1"></path></marker><marker id="SvgjsMarker1124" markerWidth="16" markerHeight="12" refX="11" refY="6" viewBox="0 0 16 12" orient="auto" markerUnits="userSpaceOnUse" stroke-dasharray="0,0"><path id="SvgjsPath1125" d="M0,0 L16,6 L0,12 L0,0" fill="#e57373" stroke="#e57373" stroke-width="1"></path></marker><marker id="SvgjsMarker1200" markerWidth="16" markerHeight="12" refX="11" refY="6" viewBox="0 0 16 12" orient="auto" markerUnits="userSpaceOnUse" stroke-dasharray="0,0"><path id="SvgjsPath1201" d="M0,0 L16,6 L0,12 L0,0" fill="#e57373" stroke="#e57373" stroke-width="1"></path></marker><marker id="SvgjsMarker1204" markerWidth="16" markerHeight="12" refX="11" refY="6" viewBox="0 0 16 12" orient="auto" markerUnits="userSpaceOnUse" stroke-dasharray="0,0"><path id="SvgjsPath1205" d="M0,0 L16,6 L0,12 L0,0" fill="#e57373" stroke="#e57373" stroke-width="1"></path></marker><marker id="SvgjsMarker1356" markerWidth="16" markerHeight="12" refX="11" refY="6" viewBox="0 0 16 12" orient="auto" markerUnits="userSpaceOnUse" stroke-dasharray="0,0"><path id="SvgjsPath1357" d="M0,0 L16,6 L0,12 L0,0" fill="#e57373" stroke="#e57373" stroke-width="1"></path></marker><marker id="SvgjsMarker1360" markerWidth="16" markerHeight="12" refX="5" refY="6" viewBox="0 0 16 12" orient="auto" markerUnits="userSpaceOnUse" stroke-dasharray="0,0"><path id="SvgjsPath1361" d="M16,0 L0,6 L16,12 L16,0" fill="#e57373" stroke="#e57373" stroke-width="1"></path></marker><marker id="SvgjsMarker1362" markerWidth="16" markerHeight="12" refX="11" refY="6" viewBox="0 0 16 12" orient="auto" markerUnits="userSpaceOnUse" stroke-dasharray="0,0"><path id="SvgjsPath1363" d="M0,0 L16,6 L0,12 L0,0" fill="#e57373" stroke="#e57373" stroke-width="1"></path></marker><marker id="SvgjsMarker1378" markerWidth="16" markerHeight="12" refX="5" refY="6" viewBox="0 0 16 12" orient="auto" markerUnits="userSpaceOnUse" stroke-dasharray="0,0"><path id="SvgjsPath1379" d="M16,0 L0,6 L16,12 L16,0" fill="#e57373" stroke="#e57373" stroke-width="1"></path></marker><marker id="SvgjsMarker1388" markerWidth="16" markerHeight="12" refX="11" refY="6" viewBox="0 0 16 12" orient="auto" markerUnits="userSpaceOnUse" stroke-dasharray="0,0"><path id="SvgjsPath1389" d="M0,0 L16,6 L0,12 L0,0" fill="#e57373" stroke="#e57373" stroke-width="1"></path></marker></defs><g id="SvgjsG1008"><path id="SvgjsPath1009" d="M323.7500000000001 406.72727272727263L323.7500000000001 495.34889214727923L323.7500000000001 495.34889214727923L323.7500000000001 580.070511567286" stroke="#e57373" stroke-width="3" fill="none" marker-end="url(#SvgjsMarker1010)"></path></g><g id="SvgjsG1012" transform="translate(25.5,58)"><path id="SvgjsPath1013" d="M 0 0L 916 0L 916 184L 0 184Z" stroke="rgba(50,50,50,1)" stroke-width="2" fill-opacity="1" fill="#f5f5f5"></path><g id="SvgjsG1014"><text id="SvgjsText1015" font-family="微软雅黑" text-anchor="middle" font-size="13px" width="896px" fill="#323232" font-weight="400" align="middle" lineHeight="125%" anchor="middle" family="微软雅黑" size="13px" weight="400" font-style="" opacity="1" y="81.375" transform="rotate(0)"></text></g></g><g id="SvgjsG1016" transform="translate(25.5,25)"><path id="SvgjsPath1017" d="M 0 0L 916 0L 916 33L 0 33Z" stroke="rgba(50,50,50,1)" stroke-width="2" fill-opacity="1" fill="#ffcdd2"></path><g id="SvgjsG1018"><text id="SvgjsText1019" font-family="微软雅黑" text-anchor="middle" font-size="13px" width="896px" fill="#323232" font-weight="700" align="middle" lineHeight="125%" anchor="middle" family="微软雅黑" size="13px" weight="700" font-style="" opacity="1" y="5.875" transform="rotate(0)"><tspan id="SvgjsTspan1020" dy="16" x="458"><tspan id="SvgjsTspan1021" style="text-decoration:;">Parser</tspan></tspan></text></g></g><g id="SvgjsG1022" transform="translate(55.5,86)"><path id="SvgjsPath1023" d="M 0 0L 587 0L 587 29L 0 29Z" stroke="rgba(50,50,50,1)" stroke-width="2" fill-opacity="1" fill="#fff9c4"></path><g id="SvgjsG1024"><text id="SvgjsText1025" font-family="微软雅黑" text-anchor="middle" font-size="13px" width="567px" fill="#323232" font-weight="700" align="middle" lineHeight="125%" anchor="middle" family="微软雅黑" size="13px" weight="700" font-style="" opacity="1" y="3.875" transform="rotate(0)"><tspan id="SvgjsTspan1026" dy="16" x="293.5"><tspan id="SvgjsTspan1027" style="text-decoration:;">Local</tspan></tspan></text></g></g><g id="SvgjsG1028" transform="translate(55.5,115)"><path id="SvgjsPath1029" d="M 0 0L 587 0L 587 92L 0 92Z" stroke="rgba(50,50,50,1)" stroke-width="2" fill-opacity="1" fill="#b2ebf2"></path><g id="SvgjsG1030"><text id="SvgjsText1031" font-family="微软雅黑" text-anchor="middle" font-size="13px" width="567px" fill="#323232" font-weight="400" align="middle" lineHeight="125%" anchor="middle" family="微软雅黑" size="13px" weight="400" font-style="" opacity="1" y="35.375" transform="rotate(0)"></text></g></g><g id="SvgjsG1032" transform="translate(95.5,134)"><path id="SvgjsPath1033" d="M 0 4Q 0 0 4 0L 137 0Q 141 0 141 4L 141 50Q 141 54 137 54L 4 54Q 0 54 0 50Z" stroke="rgba(50,50,50,1)" stroke-width="2" fill-opacity="1" fill="#e1bee7"></path><g id="SvgjsG1034"><text id="SvgjsText1035" font-family="微软雅黑" text-anchor="middle" font-size="13px" width="121px" fill="#000000" font-weight="700" align="middle" lineHeight="125%" anchor="middle" family="微软雅黑" size="13px" weight="700" font-style="" opacity="1" y="7.875" transform="rotate(0)"><tspan id="SvgjsTspan1036" dy="16" x="70.5"><tspan id="SvgjsTspan1037" style="text-decoration:;">EL Local Parser</tspan></tspan><tspan id="SvgjsTspan1038" dy="16" x="70.5"><tspan id="SvgjsTspan1039" style="text-decoration:;">type:xml</tspan></tspan></text></g></g><g id="SvgjsG1040" transform="translate(278.5,134)"><path id="SvgjsPath1041" d="M 0 4Q 0 0 4 0L 137 0Q 141 0 141 4L 141 50Q 141 54 137 54L 4 54Q 0 54 0 50Z" stroke="rgba(50,50,50,1)" stroke-width="2" fill-opacity="1" fill="#e1bee7"></path><g id="SvgjsG1042"><text id="SvgjsText1043" font-family="微软雅黑" text-anchor="middle" font-size="13px" width="121px" fill="#000000" font-weight="700" align="middle" lineHeight="125%" anchor="middle" family="微软雅黑" size="13px" weight="700" font-style="" opacity="1" y="7.875" transform="rotate(0)"><tspan id="SvgjsTspan1044" dy="16" x="70.5"><tspan id="SvgjsTspan1045" style="text-decoration:;">EL Local Parser</tspan></tspan><tspan id="SvgjsTspan1046" dy="16" x="70.5"><tspan id="SvgjsTspan1047" style="text-decoration:;">type:json</tspan></tspan></text></g></g><g id="SvgjsG1048" transform="translate(461.5,134)"><path id="SvgjsPath1049" d="M 0 4Q 0 0 4 0L 137 0Q 141 0 141 4L 141 50Q 141 54 137 54L 4 54Q 0 54 0 50Z" stroke="rgba(50,50,50,1)" stroke-width="2" fill-opacity="1" fill="#e1bee7"></path><g id="SvgjsG1050"><text id="SvgjsText1051" font-family="微软雅黑" text-anchor="middle" font-size="13px" width="121px" fill="#000000" font-weight="700" align="middle" lineHeight="125%" anchor="middle" family="微软雅黑" size="13px" weight="700" font-style="" opacity="1" y="7.875" transform="rotate(0)"><tspan id="SvgjsTspan1052" dy="16" x="70.5"><tspan id="SvgjsTspan1053" style="text-decoration:;">EL Local Parser</tspan></tspan><tspan id="SvgjsTspan1054" dy="16" x="70.5"><tspan id="SvgjsTspan1055" style="text-decoration:;">type:yaml</tspan></tspan></text></g></g><g id="SvgjsG1056" transform="translate(684.5,86)"><path id="SvgjsPath1057" d="M 0 0L 221 0L 221 29L 0 29Z" stroke="rgba(50,50,50,1)" stroke-width="2" fill-opacity="1" fill="#fff9c4"></path><g id="SvgjsG1058"><text id="SvgjsText1059" font-family="微软雅黑" text-anchor="middle" font-size="13px" width="201px" fill="#323232" font-weight="700" align="middle" lineHeight="125%" anchor="middle" family="微软雅黑" size="13px" weight="700" font-style="" opacity="1" y="3.875" transform="rotate(0)"><tspan id="SvgjsTspan1060" dy="16" x="110.5"><tspan id="SvgjsTspan1061" style="text-decoration:;">Custom</tspan></tspan></text></g></g><g id="SvgjsG1062" transform="translate(684.5,115)"><path id="SvgjsPath1063" d="M 0 0L 221 0L 221 92L 0 92Z" stroke="rgba(50,50,50,1)" stroke-width="2" fill-opacity="1" fill="#b2ebf2"></path><g id="SvgjsG1064"><text id="SvgjsText1065" font-family="微软雅黑" text-anchor="middle" font-size="13px" width="201px" fill="#323232" font-weight="400" align="middle" lineHeight="125%" anchor="middle" family="微软雅黑" size="13px" weight="400" font-style="" opacity="1" y="35.375" transform="rotate(0)"></text></g></g><g id="SvgjsG1066" transform="translate(724.5,134)"><path id="SvgjsPath1067" d="M 0 4Q 0 0 4 0L 137 0Q 141 0 141 4L 141 50Q 141 54 137 54L 4 54Q 0 54 0 50Z" stroke="rgba(50,50,50,1)" stroke-width="2" fill-opacity="1" fill="#e1bee7"></path><g id="SvgjsG1068"><text id="SvgjsText1069" font-family="微软雅黑" text-anchor="middle" font-size="13px" width="121px" fill="#000000" font-weight="700" align="middle" lineHeight="125%" anchor="middle" family="微软雅黑" size="13px" weight="700" font-style="" opacity="1" y="7.875" transform="rotate(0)"><tspan id="SvgjsTspan1070" dy="16" x="70.5"><tspan id="SvgjsTspan1071" style="text-decoration:;">EL Custom Parser</tspan></tspan><tspan id="SvgjsTspan1072" dy="16" x="70.5"><tspan id="SvgjsTspan1073" style="text-decoration:;">type:xml</tspan></tspan></text></g></g><g id="SvgjsG1074" transform="translate(25.5,314.08243727598574)"><path id="SvgjsPath1075" d="M 0 0L 499 0L 499 92.50179211469606L 0 92.50179211469606Z" stroke="rgba(50,50,50,1)" stroke-width="2" fill-opacity="1" fill="#f5f5f5"></path><g id="SvgjsG1076"><text id="SvgjsText1077" font-family="微软雅黑" text-anchor="middle" font-size="13px" width="479px" fill="#323232" font-weight="400" align="middle" lineHeight="125%" anchor="middle" family="微软雅黑" size="13px" weight="400" font-style="" opacity="1" y="35.62589605734803" transform="rotate(0)"></text></g></g><g id="SvgjsG1078" transform="translate(25.5,277.8888888888889)"><path id="SvgjsPath1079" d="M 0 0L 499 0L 499 36.19354838709671L 0 36.19354838709671Z" stroke="rgba(50,50,50,1)" stroke-width="2" fill-opacity="1" fill="#ffcdd2"></path><g id="SvgjsG1080"><text id="SvgjsText1081" font-family="微软雅黑" text-anchor="middle" font-size="13px" width="479px" fill="#323232" font-weight="700" align="middle" lineHeight="125%" anchor="middle" family="微软雅黑" size="13px" weight="700" font-style="" opacity="1" y="7.471774193548356" transform="rotate(0)"><tspan id="SvgjsTspan1082" dy="16" x="249.5"><tspan id="SvgjsTspan1083" style="text-decoration:;">Builder</tspan></tspan></text></g></g><g id="SvgjsG1084" transform="translate(668.5,314.0824372759857)"><path id="SvgjsPath1085" d="M 0 0L 273 0L 273 235.58422939068095L 0 235.58422939068095Z" stroke="rgba(50,50,50,1)" stroke-width="2" fill-opacity="1" fill="#f5f5f5"></path><g id="SvgjsG1086"><text id="SvgjsText1087" font-family="微软雅黑" text-anchor="middle" font-size="13px" width="253px" fill="#323232" font-weight="400" align="middle" lineHeight="125%" anchor="middle" family="微软雅黑" size="13px" weight="400" font-style="" opacity="1" y="107.16711469534047" transform="rotate(0)"></text></g></g><g id="SvgjsG1088" transform="translate(668.5,277.8888888888888)"><path id="SvgjsPath1089" d="M 0 0L 273 0L 273 36.19354838709694L 0 36.19354838709694Z" stroke="rgba(50,50,50,1)" stroke-width="2" fill-opacity="1" fill="#ffcdd2"></path><g id="SvgjsG1090"><text id="SvgjsText1091" font-family="微软雅黑" text-anchor="middle" font-size="13px" width="253px" fill="#323232" font-weight="700" align="middle" lineHeight="125%" anchor="middle" family="微软雅黑" size="13px" weight="700" font-style="" opacity="1" y="7.47177419354847" transform="rotate(0)"><tspan id="SvgjsTspan1092" dy="16" x="136.5"><tspan id="SvgjsTspan1093" style="text-decoration:;">Rule Plugin</tspan></tspan></text></g></g><g id="SvgjsG1094" transform="translate(702.5,333.33333333333354)"><path id="SvgjsPath1095" d="M 0 4Q 0 0 4 0L 201 0Q 205 0 205 4L 205 29.000000000000057Q 205 33.00000000000006 201 33.00000000000006L 4 33.00000000000006Q 0 33.00000000000006 0 29.000000000000057Z" stroke="rgba(50,50,50,1)" stroke-width="2" fill-opacity="1" fill="#e57373"></path><g id="SvgjsG1096"><text id="SvgjsText1097" font-family="微软雅黑" text-anchor="middle" font-size="13px" width="185px" fill="#ffffff" font-weight="700" align="middle" lineHeight="125%" anchor="middle" family="微软雅黑" size="13px" weight="700" font-style="" opacity="1" y="5.875000000000028" transform="rotate(0)"><tspan id="SvgjsTspan1098" dy="16" x="102.5"><tspan id="SvgjsTspan1099" style="text-decoration:;">ALL RDBMS(Support SQL)</tspan></tspan></text></g></g><g id="SvgjsG1100" transform="translate(702.5,387.9301075268819)"><path id="SvgjsPath1101" d="M 0 4Q 0 0 4 0L 201 0Q 205 0 205 4L 205 29.000000000000057Q 205 33.00000000000006 201 33.00000000000006L 4 33.00000000000006Q 0 33.00000000000006 0 29.000000000000057Z" stroke="rgba(50,50,50,1)" stroke-width="2" fill-opacity="1" fill="#e57373"></path><g id="SvgjsG1102"><text id="SvgjsText1103" font-family="微软雅黑" text-anchor="middle" font-size="13px" width="185px" fill="#ffffff" font-weight="700" align="middle" lineHeight="125%" anchor="middle" family="微软雅黑" size="13px" weight="700" font-style="" opacity="1" y="5.875000000000028" transform="rotate(0)"><tspan id="SvgjsTspan1104" dy="16" x="102.5"><tspan id="SvgjsTspan1105" style="text-decoration:;">Zookeeper</tspan></tspan></text></g></g><g id="SvgjsG1106" transform="translate(702.5,442.5268817204302)"><path id="SvgjsPath1107" d="M 0 4Q 0 0 4 0L 201 0Q 205 0 205 4L 205 29.000000000000057Q 205 33.00000000000006 201 33.00000000000006L 4 33.00000000000006Q 0 33.00000000000006 0 29.000000000000057Z" stroke="rgba(50,50,50,1)" stroke-width="2" fill-opacity="1" fill="#e57373"></path><g id="SvgjsG1108"><text id="SvgjsText1109" font-family="微软雅黑" text-anchor="middle" font-size="13px" width="185px" fill="#ffffff" font-weight="700" align="middle" lineHeight="125%" anchor="middle" family="微软雅黑" size="13px" weight="700" font-style="" opacity="1" y="5.875000000000028" transform="rotate(0)"><tspan id="SvgjsTspan1110" dy="16" x="102.5"><tspan id="SvgjsTspan1111" style="text-decoration:;">Etcd</tspan></tspan></text></g></g><g id="SvgjsG1112"><path id="SvgjsPath1113" d="M795 208L795 242.4444444444444L795 242.4444444444444L795 272.9888888888888" stroke="#e57373" stroke-width="3" fill="none" marker-end="url(#SvgjsMarker1114)"></path></g><g id="SvgjsG1116" transform="translate(702.5,497.1236559139786)"><path id="SvgjsPath1117" d="M 0 4Q 0 0 4 0L 201 0Q 205 0 205 4L 205 29.000000000000057Q 205 33.00000000000006 201 33.00000000000006L 4 33.00000000000006Q 0 33.00000000000006 0 29.000000000000057Z" stroke="rgba(50,50,50,1)" stroke-width="2" fill-opacity="1" fill="#e57373"></path><g id="SvgjsG1118"><text id="SvgjsText1119" font-family="微软雅黑" text-anchor="middle" font-size="13px" width="185px" fill="#ffffff" font-weight="700" align="middle" lineHeight="125%" anchor="middle" family="微软雅黑" size="13px" weight="700" font-style="" opacity="1" y="5.875000000000028" transform="rotate(0)"><tspan id="SvgjsTspan1120" dy="16" x="102.5"><tspan id="SvgjsTspan1121" style="text-decoration:;">Nacos</tspan></tspan></text></g></g><g id="SvgjsG1122"><path id="SvgjsPath1123" d="M324 242L324 259.77777777777777L324 259.77777777777777L324 273.65555555555557" stroke="#e57373" stroke-width="3" fill="none" marker-end="url(#SvgjsMarker1124)"></path></g><g id="SvgjsG1126" transform="translate(62.33333333333337,333.33333333333354)"><path id="SvgjsPath1127" d="M 0 4Q 0 0 4 0L 190.27777777777771 0Q 194.27777777777771 0 194.27777777777771 4L 194.27777777777771 50.000000000000455Q 194.27777777777771 54.000000000000455 190.27777777777771 54.000000000000455L 4 54.000000000000455Q 0 54.000000000000455 0 50.000000000000455Z" stroke="rgba(50,50,50,1)" stroke-width="2" fill-opacity="1" fill="#e1bee7"></path><g id="SvgjsG1128"><text id="SvgjsText1129" font-family="微软雅黑" text-anchor="middle" font-size="13px" width="175px" fill="#000000" font-weight="700" align="middle" lineHeight="125%" anchor="middle" family="微软雅黑" size="13px" weight="700" font-style="" opacity="1" y="16.375000000000227" transform="rotate(0)"><tspan id="SvgjsTspan1130" dy="16" x="97.5"><tspan id="SvgjsTspan1131" style="text-decoration:;">Node Builder</tspan></tspan></text></g></g><g id="SvgjsG1132" transform="translate(25.5,475.5268817204303)"><path id="SvgjsPath1133" d="M 0 0L 357.7777777777778 0L 357.7777777777778 74.13978494623643L 0 74.13978494623643Z" stroke="rgba(50,50,50,1)" stroke-width="2" fill-opacity="1" fill="#f5f5f5"></path><g id="SvgjsG1134"><text id="SvgjsText1135" font-family="微软雅黑" text-anchor="middle" font-size="13px" width="338px" fill="#323232" font-weight="400" align="middle" lineHeight="125%" anchor="middle" family="微软雅黑" size="13px" weight="400" font-style="" opacity="1" y="26.444892473118216" transform="rotate(0)"></text></g></g><g id="SvgjsG1136" transform="translate(25.5,439.33333333333337)"><path id="SvgjsPath1137" d="M 0 0L 357.7777777777777 0L 357.7777777777777 36.193548387096826L 0 36.193548387096826Z" stroke="rgba(50,50,50,1)" stroke-width="2" fill-opacity="1" fill="#ffcdd2"></path><g id="SvgjsG1138"><text id="SvgjsText1139" font-family="微软雅黑" text-anchor="middle" font-size="13px" width="338px" fill="#323232" font-weight="700" align="middle" lineHeight="125%" anchor="middle" family="微软雅黑" size="13px" weight="700" font-style="" opacity="1" y="7.471774193548413" transform="rotate(0)"><tspan id="SvgjsTspan1140" dy="16" x="179"><tspan id="SvgjsTspan1141" style="text-decoration:;">Script Plugin</tspan></tspan></text></g></g><g id="SvgjsG1142" transform="translate(311.8333333333332,333.33333333333354)"><path id="SvgjsPath1143" d="M 0 4Q 0 0 4 0L 174.11111111111126 0Q 178.11111111111126 0 178.11111111111126 4L 178.11111111111126 50.000000000000455Q 178.11111111111126 54.000000000000455 174.11111111111126 54.000000000000455L 4 54.000000000000455Q 0 54.000000000000455 0 50.000000000000455Z" stroke="rgba(50,50,50,1)" stroke-width="2" fill-opacity="1" fill="#e1bee7"></path><g id="SvgjsG1144"><text id="SvgjsText1145" font-family="微软雅黑" text-anchor="middle" font-size="13px" width="159px" fill="#000000" font-weight="700" align="middle" lineHeight="125%" anchor="middle" family="微软雅黑" size="13px" weight="700" font-style="" opacity="1" y="16.375000000000227" transform="rotate(0)"><tspan id="SvgjsTspan1146" dy="16" x="89.5"><tspan id="SvgjsTspan1147" style="text-decoration:;">Chain Builder</tspan></tspan></text></g></g><g id="SvgjsG1148" transform="translate(422.1666666666665,475.5268817204303)"><path id="SvgjsPath1149" d="M 0 0L 200.33333333333348 0L 200.33333333333348 74.13978494623655L 0 74.13978494623655Z" stroke="rgba(50,50,50,1)" stroke-width="2" fill-opacity="1" fill="#f5f5f5"></path><g id="SvgjsG1150"><text id="SvgjsText1151" font-family="微软雅黑" text-anchor="middle" font-size="13px" width="181px" fill="#323232" font-weight="400" align="middle" lineHeight="125%" anchor="middle" family="微软雅黑" size="13px" weight="400" font-style="" opacity="1" y="26.444892473118273" transform="rotate(0)"></text></g></g><g id="SvgjsG1152" transform="translate(422.1666666666665,439.33333333333326)"><path id="SvgjsPath1153" d="M 0 0L 200.33333333333348 0L 200.33333333333348 36.19354838709705L 0 36.19354838709705Z" stroke="rgba(50,50,50,1)" stroke-width="2" fill-opacity="1" fill="#ffcdd2"></path><g id="SvgjsG1154"><text id="SvgjsText1155" font-family="微软雅黑" text-anchor="middle" font-size="13px" width="181px" fill="#323232" font-weight="700" align="middle" lineHeight="125%" anchor="middle" family="微软雅黑" size="13px" weight="700" font-style="" opacity="1" y="7.4717741935485265" transform="rotate(0)"><tspan id="SvgjsTspan1156" dy="16" x="100.5"><tspan id="SvgjsTspan1157" style="text-decoration:;">EL Executor</tspan></tspan></text></g></g><g id="SvgjsG1158" transform="translate(40.97222222222234,493.64426523297504)"><path id="SvgjsPath1159" d="M 0 4Q 0 0 4 0L 92.40277777777766 0Q 96.40277777777766 0 96.40277777777766 4L 96.40277777777766 33.905017921146964Q 96.40277777777766 37.905017921146964 92.40277777777766 37.905017921146964L 4 37.905017921146964Q 0 37.905017921146964 0 33.905017921146964Z" stroke="rgba(0,0,0,1)" stroke-width="2" fill-opacity="1" fill="#e57373"></path><g id="SvgjsG1160"><text id="SvgjsText1161" font-family="微软雅黑" text-anchor="middle" font-size="13px" width="77px" fill="#ffffff" font-weight="700" align="middle" lineHeight="125%" anchor="middle" family="微软雅黑" size="13px" weight="700" font-style="" opacity="1" y="8.327508960573482" transform="rotate(0)"><tspan id="SvgjsTspan1162" dy="16" x="48.5"><tspan id="SvgjsTspan1163" style="text-decoration:;">Groovy</tspan></tspan></text></g></g><g id="SvgjsG1164" transform="translate(160.1111111111111,493.64426523297504)"><path id="SvgjsPath1165" d="M 0 4Q 0 0 4 0L 88.88888888888891 0Q 92.88888888888891 0 92.88888888888891 4L 92.88888888888891 33.905017921146964Q 92.88888888888891 37.905017921146964 88.88888888888891 37.905017921146964L 4 37.905017921146964Q 0 37.905017921146964 0 33.905017921146964Z" stroke="rgba(0,0,0,1)" stroke-width="2" fill-opacity="1" fill="#e57373"></path><g id="SvgjsG1166"><text id="SvgjsText1167" font-family="微软雅黑" text-anchor="middle" font-size="13px" width="73px" fill="#ffffff" font-weight="700" align="middle" lineHeight="125%" anchor="middle" family="微软雅黑" size="13px" weight="700" font-style="" opacity="1" y="8.327508960573482" transform="rotate(0)"><tspan id="SvgjsTspan1168" dy="16" x="46.5"><tspan id="SvgjsTspan1169" style="text-decoration:;">Javascript</tspan></tspan></text></g></g><g id="SvgjsG1170" transform="translate(271.6666666666667,493.64426523297504)"><path id="SvgjsPath1171" d="M 0 4Q 0 0 4 0L 85.45833333333331 0Q 89.45833333333331 0 89.45833333333331 4L 89.45833333333331 33.905017921146964Q 89.45833333333331 37.905017921146964 85.45833333333331 37.905017921146964L 4 37.905017921146964Q 0 37.905017921146964 0 33.905017921146964Z" stroke="rgba(0,0,0,1)" stroke-width="2" fill-opacity="1" fill="#e57373"></path><g id="SvgjsG1172"><text id="SvgjsText1173" font-family="微软雅黑" text-anchor="middle" font-size="13px" width="70px" fill="#ffffff" font-weight="700" align="middle" lineHeight="125%" anchor="middle" family="微软雅黑" size="13px" weight="700" font-style="" opacity="1" y="8.327508960573482" transform="rotate(0)"><tspan id="SvgjsTspan1174" dy="16" x="45"><tspan id="SvgjsTspan1175" style="text-decoration:;">QLExpress</tspan></tspan></text></g></g><g id="SvgjsG1176" transform="translate(446.69444444444423,493.64426523297504)"><path id="SvgjsPath1177" d="M 0 4Q 0 0 4 0L 147.27777777777806 0Q 151.27777777777806 0 151.27777777777806 4L 151.27777777777806 33.905017921146964Q 151.27777777777806 37.905017921146964 147.27777777777806 37.905017921146964L 4 37.905017921146964Q 0 37.905017921146964 0 33.905017921146964Z" stroke="rgba(50,50,50,1)" stroke-width="2" fill-opacity="1" fill="#e1bee7"></path><g id="SvgjsG1178"><text id="SvgjsText1179" font-family="微软雅黑" text-anchor="middle" font-size="13px" width="132px" fill="#000000" font-weight="700" align="middle" lineHeight="125%" anchor="middle" family="微软雅黑" size="13px" weight="700" font-style="" opacity="1" y="8.327508960573482" transform="rotate(0)"><tspan id="SvgjsTspan1180" dy="16" x="76"><tspan id="SvgjsTspan1181" style="text-decoration:;">EL Core Executor</tspan></tspan></text></g></g><g id="SvgjsG1182" transform="translate(525,277.8888888888888)"><path id="SvgjsPath1183" d="M 0 0L 97.5 0L 97.5 63.818996415770584L 0 63.818996415770584Z" stroke="rgba(50,50,50,1)" stroke-width="2" fill-opacity="1" fill="#b2ebf2"></path><g id="SvgjsG1184"><text id="SvgjsText1185" font-family="微软雅黑" text-anchor="middle" font-size="13px" width="78px" fill="#323232" font-weight="700" align="middle" lineHeight="125%" anchor="middle" family="微软雅黑" size="13px" weight="700" font-style="" opacity="1" y="12.784498207885292" transform="rotate(0)"><tspan id="SvgjsTspan1186" dy="16" x="49"><tspan id="SvgjsTspan1187" style="text-decoration:;">Extend </tspan></tspan><tspan id="SvgjsTspan1188" dy="16" x="49"><tspan id="SvgjsTspan1189" style="text-decoration:;">Mode</tspan></tspan></text></g></g><g id="SvgjsG1190" transform="translate(524.5,341.7078853046594)"><path id="SvgjsPath1191" d="M 0 0L 98.5 0L 98.5 64.87634408602241L 0 64.87634408602241Z" stroke="rgba(50,50,50,1)" stroke-width="2" fill-opacity="1" fill="#b2ebf2"></path><g id="SvgjsG1192"><text id="SvgjsText1193" font-family="微软雅黑" text-anchor="middle" font-size="13px" width="79px" fill="#323232" font-weight="700" align="middle" lineHeight="125%" anchor="middle" family="微软雅黑" size="13px" weight="700" font-style="" opacity="1" y="13.313172043011207" transform="rotate(0)"><tspan id="SvgjsTspan1194" dy="16" x="49.5"><tspan id="SvgjsTspan1195" style="text-decoration:;">Declare</tspan></tspan><tspan id="SvgjsTspan1196" dy="16" x="49.5"><tspan id="SvgjsTspan1197" style="text-decoration:;">Mode</tspan></tspan></text></g></g><g id="SvgjsG1198"><path id="SvgjsPath1199" d="M159.47222222222223 388.333333333334L159.47222222222223 413.50000000000034L159.47222222222223 413.50000000000034L159.47222222222223 434.76666666666665" stroke="#e57373" stroke-width="3" fill="none" marker-end="url(#SvgjsMarker1200)"></path></g><g id="SvgjsG1202"><path id="SvgjsPath1203" d="M461.05555555555554 387.3333333333333L461.05555555555554 413L461.05555555555554 413L461.05555555555554 434.76666666666665" stroke="#e57373" stroke-width="3" fill="none" marker-end="url(#SvgjsMarker1204)"></path></g><g id="SvgjsG1206" transform="translate(25.000000000000085,621.3737373737378)"><path id="SvgjsPath1207" d="M 0 0L 597.5 0L 597.5 220.85703185703142L 0 220.85703185703142Z" stroke="rgba(50,50,50,1)" stroke-width="2" fill-opacity="1" fill="#f5f5f5"></path><g id="SvgjsG1208"><text id="SvgjsText1209" font-family="微软雅黑" text-anchor="middle" font-size="13px" width="578px" fill="#323232" font-weight="400" align="middle" lineHeight="125%" anchor="middle" family="微软雅黑" size="13px" weight="400" font-style="" opacity="1" y="99.80351592851571" transform="rotate(0)"></text></g></g><g id="SvgjsG1210" transform="translate(25.5,584.9705115672859)"><path id="SvgjsPath1211" d="M 0 0L 596.5000000000002 0L 596.5000000000002 36.403225806451815L 0 36.403225806451815Z" stroke="rgba(50,50,50,1)" stroke-width="2" fill-opacity="1" fill="#ffcdd2"></path><g id="SvgjsG1212"><text id="SvgjsText1213" font-family="微软雅黑" text-anchor="middle" font-size="13px" width="577px" fill="#323232" font-weight="700" align="middle" lineHeight="125%" anchor="middle" family="微软雅黑" size="13px" weight="700" font-style="" opacity="1" y="7.576612903225907" transform="rotate(0)"><tspan id="SvgjsTspan1214" dy="16" x="298.5"><tspan id="SvgjsTspan1215" style="text-decoration:;">Flow Bus</tspan></tspan></text></g></g><g id="SvgjsG1216" transform="translate(320.4141414141415,556.0303030303032)"><path id="SvgjsPath1217" d="M 0 0L 62.86363636363632 0L 62.86363636363632 24.242424242424022L 0 24.242424242424022Z" stroke="none" fill="none"></path><g id="SvgjsG1218"><text id="SvgjsText1219" font-family="微软雅黑" text-anchor="middle" font-size="13px" width="63px" fill="#e57373" font-weight="700" align="middle" lineHeight="125%" anchor="middle" family="微软雅黑" size="13px" weight="700" font-style="" opacity="1" y="1.496212121212011" transform="rotate(0)"><tspan id="SvgjsTspan1220" dy="16" x="31.5"><tspan id="SvgjsTspan1221" style="text-decoration:;">Add</tspan></tspan></text></g></g><g id="SvgjsG1222" transform="translate(46.40909090909096,642.3636363636365)"><path id="SvgjsPath1223" d="M 0 0L 551.5631313131312 0L 551.5631313131312 29L 0 29Z" stroke="rgba(50,50,50,1)" stroke-width="2" fill-opacity="1" fill="#fff9c4"></path><g id="SvgjsG1224"><text id="SvgjsText1225" font-family="微软雅黑" text-anchor="middle" font-size="13px" width="532px" fill="#323232" font-weight="700" align="middle" lineHeight="125%" anchor="middle" family="微软雅黑" size="13px" weight="700" font-style="" opacity="1" y="3.875" transform="rotate(0)"><tspan id="SvgjsTspan1226" dy="16" x="276"><tspan id="SvgjsTspan1227" style="text-decoration:;">Chain</tspan></tspan></text></g></g><g id="SvgjsG1228" transform="translate(46.40909090909096,671.3636363636365)"><path id="SvgjsPath1229" d="M 0 0L 551.5631313131313 0L 551.5631313131313 154.30303030303014L 0 154.30303030303014Z" stroke="rgba(50,50,50,1)" stroke-width="2" fill-opacity="1" fill="#b2ebf2"></path><g id="SvgjsG1230"><text id="SvgjsText1231" font-family="微软雅黑" text-anchor="middle" font-size="13px" width="532px" fill="#323232" font-weight="400" align="middle" lineHeight="125%" anchor="middle" family="微软雅黑" size="13px" weight="400" font-style="" opacity="1" y="66.52651515151507" transform="rotate(0)"></text></g></g><g id="SvgjsG1232" transform="translate(68.56349206349196,686.1214945448818)"><path id="SvgjsPath1233" d="M 0 0L 329.20634920634933 0L 329.20634920634933 20.989616566229415L 0 20.989616566229415Z" stroke="rgba(50,50,50,1)" stroke-width="2" fill-opacity="1" fill="#fff9c4"></path><g id="SvgjsG1234"><text id="SvgjsText1235" font-family="微软雅黑" text-anchor="middle" font-size="13px" width="310px" fill="#323232" font-weight="700" align="middle" lineHeight="125%" anchor="middle" family="微软雅黑" size="13px" weight="700" font-style="" opacity="1" y="-0.1301917168852924" transform="rotate(0)"><tspan id="SvgjsTspan1236" dy="16" x="165"><tspan id="SvgjsTspan1237" style="text-decoration:;">Condition</tspan></tspan></text></g></g><g id="SvgjsG1238" transform="translate(68.66666666666666,707.1111111111114)"><path id="SvgjsPath1239" d="M 0 0L 329.0000000000004 0L 329.0000000000004 97.28264208909332L 0 97.28264208909332Z" stroke="rgba(50,50,50,1)" stroke-width="2" fill-opacity="1" fill="#b2ebf2"></path><g id="SvgjsG1240"><text id="SvgjsText1241" font-family="微软雅黑" text-anchor="middle" font-size="13px" width="310px" fill="#323232" font-weight="400" align="middle" lineHeight="125%" anchor="middle" family="微软雅黑" size="13px" weight="400" font-style="" opacity="1" y="38.01632104454666" transform="rotate(0)"></text></g></g><g id="SvgjsG1242" transform="translate(100.07142857142836,725.7056017459244)"><path id="SvgjsPath1243" d="M 0 4Q 0 0 4 0L 68.92857142857153 0Q 72.92857142857153 0 72.92857142857153 4L 72.92857142857153 17.96945527590674Q 72.92857142857153 21.96945527590674 68.92857142857153 21.96945527590674L 4 21.96945527590674Q 0 21.96945527590674 0 17.96945527590674Z" stroke="rgba(50,50,50,1)" stroke-width="2" fill-opacity="1" fill="#e1bee7"></path><g id="SvgjsG1244"><text id="SvgjsText1245" font-family="微软雅黑" text-anchor="middle" font-size="12px" width="53px" fill="#000000" font-weight="700" align="middle" lineHeight="125%" anchor="middle" family="微软雅黑" size="12px" weight="700" font-style="" opacity="1" y="0.9847276379533696" transform="rotate(0)"><tspan id="SvgjsTspan1246" dy="15" x="36.5"><tspan id="SvgjsTspan1247" style="text-decoration:;">THEN</tspan></tspan></text></g></g><g id="SvgjsG1248" transform="translate(196.70238095238096,725.7056017459244)"><path id="SvgjsPath1249" d="M 0 4Q 0 0 4 0L 68.92857142857153 0Q 72.92857142857153 0 72.92857142857153 4L 72.92857142857153 17.96945527590674Q 72.92857142857153 21.96945527590674 68.92857142857153 21.96945527590674L 4 21.96945527590674Q 0 21.96945527590674 0 17.96945527590674Z" stroke="rgba(50,50,50,1)" stroke-width="2" fill-opacity="1" fill="#e1bee7"></path><g id="SvgjsG1250"><text id="SvgjsText1251" font-family="微软雅黑" text-anchor="middle" font-size="12px" width="53px" fill="#000000" font-weight="700" align="middle" lineHeight="125%" anchor="middle" family="微软雅黑" size="12px" weight="700" font-style="" opacity="1" y="0.9847276379533696" transform="rotate(0)"><tspan id="SvgjsTspan1252" dy="15" x="36.5"><tspan id="SvgjsTspan1253" style="text-decoration:;">WHEN</tspan></tspan></text></g></g><g id="SvgjsG1254" transform="translate(297.2857142857144,725.7056017459244)"><path id="SvgjsPath1255" d="M 0 4Q 0 0 4 0L 68.92857142857153 0Q 72.92857142857153 0 72.92857142857153 4L 72.92857142857153 17.96945527590674Q 72.92857142857153 21.96945527590674 68.92857142857153 21.96945527590674L 4 21.96945527590674Q 0 21.96945527590674 0 17.96945527590674Z" stroke="rgba(50,50,50,1)" stroke-width="2" fill-opacity="1" fill="#e1bee7"></path><g id="SvgjsG1256"><text id="SvgjsText1257" font-family="微软雅黑" text-anchor="middle" font-size="12px" width="53px" fill="#000000" font-weight="700" align="middle" lineHeight="125%" anchor="middle" family="微软雅黑" size="12px" weight="700" font-style="" opacity="1" y="0.9847276379533696" transform="rotate(0)"><tspan id="SvgjsTspan1258" dy="15" x="36.5"><tspan id="SvgjsTspan1259" style="text-decoration:;">SWITCH</tspan></tspan></text></g></g><g id="SvgjsG1260" transform="translate(100.07142857142836,765.752432155658)"><path id="SvgjsPath1261" d="M 0 4Q 0 0 4 0L 68.92857142857153 0Q 72.92857142857153 0 72.92857142857153 4L 72.92857142857153 17.96945527590674Q 72.92857142857153 21.96945527590674 68.92857142857153 21.96945527590674L 4 21.96945527590674Q 0 21.96945527590674 0 17.96945527590674Z" stroke="rgba(50,50,50,1)" stroke-width="2" fill-opacity="1" fill="#e1bee7"></path><g id="SvgjsG1262"><text id="SvgjsText1263" font-family="微软雅黑" text-anchor="middle" font-size="12px" width="53px" fill="#000000" font-weight="700" align="middle" lineHeight="125%" anchor="middle" family="微软雅黑" size="12px" weight="700" font-style="" opacity="1" y="0.9847276379533696" transform="rotate(0)"><tspan id="SvgjsTspan1264" dy="15" x="36.5"><tspan id="SvgjsTspan1265" style="text-decoration:;">IF</tspan></tspan></text></g></g><g id="SvgjsG1266" transform="translate(196.70238095238108,765.752432155658)"><path id="SvgjsPath1267" d="M 0 4Q 0 0 4 0L 68.92857142857153 0Q 72.92857142857153 0 72.92857142857153 4L 72.92857142857153 17.96945527590674Q 72.92857142857153 21.96945527590674 68.92857142857153 21.96945527590674L 4 21.96945527590674Q 0 21.96945527590674 0 17.96945527590674Z" stroke="rgba(50,50,50,1)" stroke-width="2" fill-opacity="1" fill="#e1bee7"></path><g id="SvgjsG1268"><text id="SvgjsText1269" font-family="微软雅黑" text-anchor="middle" font-size="12px" width="53px" fill="#000000" font-weight="700" align="middle" lineHeight="125%" anchor="middle" family="微软雅黑" size="12px" weight="700" font-style="" opacity="1" y="0.9847276379533696" transform="rotate(0)"><tspan id="SvgjsTspan1270" dy="15" x="36.5"><tspan id="SvgjsTspan1271" style="text-decoration:;">LOOP</tspan></tspan></text></g></g><g id="SvgjsG1272" transform="translate(297.28571428571433,765.752432155658)"><path id="SvgjsPath1273" d="M 0 4Q 0 0 4 0L 68.92857142857153 0Q 72.92857142857153 0 72.92857142857153 4L 72.92857142857153 17.96945527590674Q 72.92857142857153 21.96945527590674 68.92857142857153 21.96945527590674L 4 21.96945527590674Q 0 21.96945527590674 0 17.96945527590674Z" stroke="rgba(50,50,50,1)" stroke-width="2" fill-opacity="1" fill="#e1bee7"></path><g id="SvgjsG1274"><text id="SvgjsText1275" font-family="微软雅黑" text-anchor="middle" font-size="12px" width="53px" fill="#000000" font-weight="700" align="middle" lineHeight="125%" anchor="middle" family="微软雅黑" size="12px" weight="700" font-style="" opacity="1" y="0.9847276379533696" transform="rotate(0)"><tspan id="SvgjsTspan1276" dy="15" x="36.5"><tspan id="SvgjsTspan1277" style="text-decoration:;">PRE/FNL</tspan></tspan></text></g></g><g id="SvgjsG1278" transform="translate(432.1666666666665,707.1111111111113)"><path id="SvgjsPath1279" d="M 0 0L 141.7948717948725 0L 141.7948717948725 97.28264208909354L 0 97.28264208909354Z" stroke="rgba(50,50,50,1)" stroke-width="2" fill-opacity="1" fill="#b2ebf2"></path><g id="SvgjsG1280"><text id="SvgjsText1281" font-family="微软雅黑" text-anchor="middle" font-size="13px" width="122px" fill="#323232" font-weight="400" align="middle" lineHeight="125%" anchor="middle" family="微软雅黑" size="13px" weight="400" font-style="" opacity="1" y="38.01632104454677" transform="rotate(0)"></text></g></g><g id="SvgjsG1282" transform="translate(438.4047619047615,716.8688592433554)"><path id="SvgjsPath1283" d="M 0 4Q 0 0 4 0L 56.4285714285719 0Q 60.4285714285719 0 60.4285714285719 4L 60.4285714285719 16Q 60.4285714285719 20 56.4285714285719 20L 4 20Q 0 20 0 16Z" stroke="rgba(50,50,50,1)" stroke-width="2" fill-opacity="1" fill="#e1bee7"></path><g id="SvgjsG1284"><text id="SvgjsText1285" font-family="微软雅黑" text-anchor="middle" font-size="12px" width="41px" fill="#000000" font-weight="700" align="middle" lineHeight="125%" anchor="middle" family="微软雅黑" size="12px" weight="700" font-style="" opacity="1" y="0" transform="rotate(0)"><tspan id="SvgjsTspan1286" dy="15" x="30.5"><tspan id="SvgjsTspan1287" style="text-decoration:;">Node1</tspan></tspan></text></g></g><g id="SvgjsG1288" transform="translate(438.4047619047616,745.752432155658)"><path id="SvgjsPath1289" d="M 0 4Q 0 0 4 0L 56.42857142857156 0Q 60.42857142857156 0 60.42857142857156 4L 60.42857142857156 16Q 60.42857142857156 20 56.42857142857156 20L 4 20Q 0 20 0 16Z" stroke="rgba(50,50,50,1)" stroke-width="2" fill-opacity="1" fill="#e1bee7"></path><g id="SvgjsG1290"><text id="SvgjsText1291" font-family="微软雅黑" text-anchor="middle" font-size="12px" width="41px" fill="#000000" font-weight="700" align="middle" lineHeight="125%" anchor="middle" family="微软雅黑" size="12px" weight="700" font-style="" opacity="1" y="0" transform="rotate(0)"><tspan id="SvgjsTspan1292" dy="15" x="30.5"><tspan id="SvgjsTspan1293" style="text-decoration:;">Node2</tspan></tspan></text></g></g><g id="SvgjsG1294" transform="translate(438.40476190476136,774.6360050679606)"><path id="SvgjsPath1295" d="M 0 4Q 0 0 4 0L 56.42857142857213 0Q 60.42857142857213 0 60.42857142857213 4L 60.42857142857213 16.030661598705933Q 60.42857142857213 20.030661598705933 56.42857142857213 20.030661598705933L 4 20.030661598705933Q 0 20.030661598705933 0 16.030661598705933Z" stroke="rgba(50,50,50,1)" stroke-width="2" fill-opacity="1" fill="#e1bee7"></path><g id="SvgjsG1296"><text id="SvgjsText1297" font-family="微软雅黑" text-anchor="middle" font-size="12px" width="41px" fill="#000000" font-weight="700" align="middle" lineHeight="125%" anchor="middle" family="微软雅黑" size="12px" weight="700" font-style="" opacity="1" y="0.015330799352966551" transform="rotate(0)"><tspan id="SvgjsTspan1298" dy="15" x="30.5"><tspan id="SvgjsTspan1299" style="text-decoration:;">Node3</tspan></tspan></text></g></g><g id="SvgjsG1300" transform="translate(432.1666666666665,685.2473193249403)"><path id="SvgjsPath1301" d="M 0 0L 141.79487179487137 0L 141.79487179487137 22.737967006112285L 0 22.737967006112285Z" stroke="rgba(50,50,50,1)" stroke-width="2" fill-opacity="1" fill="#fff9c4"></path><g id="SvgjsG1302"><text id="SvgjsText1303" font-family="微软雅黑" text-anchor="middle" font-size="13px" width="122px" fill="#323232" font-weight="700" align="middle" lineHeight="125%" anchor="middle" family="微软雅黑" size="13px" weight="700" font-style="" opacity="1" y="0.7439835030561426" transform="rotate(0)"><tspan id="SvgjsTspan1304" dy="16" x="71"><tspan id="SvgjsTspan1305" style="text-decoration:;">Node</tspan></tspan></text></g></g><g id="SvgjsG1306" transform="translate(508.40476190476136,716.8688592433554)"><path id="SvgjsPath1307" d="M 0 4Q 0 0 4 0L 56.4285714285719 0Q 60.4285714285719 0 60.4285714285719 4L 60.4285714285719 16Q 60.4285714285719 20 56.4285714285719 20L 4 20Q 0 20 0 16Z" stroke="rgba(50,50,50,1)" stroke-width="2" fill-opacity="1" fill="#e1bee7"></path><g id="SvgjsG1308"><text id="SvgjsText1309" font-family="微软雅黑" text-anchor="middle" font-size="12px" width="41px" fill="#000000" font-weight="700" align="middle" lineHeight="125%" anchor="middle" family="微软雅黑" size="12px" weight="700" font-style="" opacity="1" y="0" transform="rotate(0)"><tspan id="SvgjsTspan1310" dy="15" x="30.5"><tspan id="SvgjsTspan1311" style="text-decoration:;">Node4</tspan></tspan></text></g></g><g id="SvgjsG1312" transform="translate(508.4047619047617,745.7524321556579)"><path id="SvgjsPath1313" d="M 0 4Q 0 0 4 0L 56.4285714285719 0Q 60.4285714285719 0 60.4285714285719 4L 60.4285714285719 16Q 60.4285714285719 20 56.4285714285719 20L 4 20Q 0 20 0 16Z" stroke="rgba(50,50,50,1)" stroke-width="2" fill-opacity="1" fill="#e1bee7"></path><g id="SvgjsG1314"><text id="SvgjsText1315" font-family="微软雅黑" text-anchor="middle" font-size="12px" width="41px" fill="#000000" font-weight="700" align="middle" lineHeight="125%" anchor="middle" family="微软雅黑" size="12px" weight="700" font-style="" opacity="1" y="0" transform="rotate(0)"><tspan id="SvgjsTspan1316" dy="15" x="30.5"><tspan id="SvgjsTspan1317" style="text-decoration:;">Node5</tspan></tspan></text></g></g><g id="SvgjsG1318" transform="translate(508.4047619047619,774.6513358673135)"><path id="SvgjsPath1319" d="M 0 4Q 0 0 4 0L 56.4285714285719 0Q 60.4285714285719 0 60.4285714285719 4L 60.4285714285719 16Q 60.4285714285719 20 56.4285714285719 20L 4 20Q 0 20 0 16Z" stroke="rgba(50,50,50,1)" stroke-width="2" fill-opacity="1" fill="#e1bee7"></path><g id="SvgjsG1320"><text id="SvgjsText1321" font-family="微软雅黑" text-anchor="middle" font-size="12px" width="41px" fill="#000000" font-weight="700" align="middle" lineHeight="125%" anchor="middle" family="微软雅黑" size="12px" weight="700" font-style="" opacity="1" y="0" transform="rotate(0)"><tspan id="SvgjsTspan1322" dy="15" x="30.5"><tspan id="SvgjsTspan1323" style="text-decoration:;">Node6</tspan></tspan></text></g></g><g id="SvgjsG1324" transform="translate(668.5,584.9705115672859)"><path id="SvgjsPath1325" d="M 0 0L 273 0L 273 112.57494297816856L 0 112.57494297816856Z" stroke="rgba(50,50,50,1)" stroke-width="2" fill-opacity="1" fill="#e1bee7"></path><g id="SvgjsG1326"><text id="SvgjsText1327" font-family="微软雅黑" text-anchor="middle" font-size="13px" width="253px" fill="#323232" font-weight="700" align="middle" lineHeight="125%" anchor="middle" family="微软雅黑" size="13px" weight="700" font-style="" opacity="1" y="37.16247148908428" transform="rotate(0)"><tspan id="SvgjsTspan1328" dy="16" x="136.5"><tspan id="SvgjsTspan1329" style="text-decoration:;">Data Bus</tspan></tspan><tspan id="SvgjsTspan1330" dy="16" x="136.5"><tspan id="SvgjsTspan1331" style="text-decoration:;">Context Manager</tspan></tspan></text></g></g><g id="SvgjsG1332" transform="translate(668.4999999999999,729.6558262526006)"><path id="SvgjsPath1333" d="M 0 0L 273 0L 273 112.57494297816856L 0 112.57494297816856Z" stroke="rgba(50,50,50,1)" stroke-width="2" fill-opacity="1" fill="#e1bee7"></path><g id="SvgjsG1334"><text id="SvgjsText1335" font-family="微软雅黑" text-anchor="middle" font-size="13px" width="253px" fill="#323232" font-weight="700" align="middle" lineHeight="125%" anchor="middle" family="微软雅黑" size="13px" weight="700" font-style="" opacity="1" y="37.16247148908428" transform="rotate(0)"><tspan id="SvgjsTspan1336" dy="16" x="136.5"><tspan id="SvgjsTspan1337" style="text-decoration:;">Context</tspan></tspan><tspan id="SvgjsTspan1338" dy="16" x="136.5"><tspan id="SvgjsTspan1339" style="text-decoration:;">Chain Request Context</tspan></tspan></text></g></g><g id="SvgjsG1340" transform="translate(25.000000000000227,875.6565656565654)"><path id="SvgjsPath1341" d="M 0 0L 597.4999999999998 0L 597.4999999999998 87.7979797979799L 0 87.7979797979799Z" stroke="rgba(50,50,50,1)" stroke-width="2" fill-opacity="1" fill="#e1bee7"></path><g id="SvgjsG1342"><text id="SvgjsText1343" font-family="微软雅黑" text-anchor="middle" font-size="13px" width="578px" fill="#323232" font-weight="700" align="middle" lineHeight="125%" anchor="middle" family="微软雅黑" size="13px" weight="700" font-style="" opacity="1" y="24.773989898989953" transform="rotate(0)"><tspan id="SvgjsTspan1344" dy="16" x="299"><tspan id="SvgjsTspan1345" style="text-decoration:;">Flow Executor</tspan></tspan><tspan id="SvgjsTspan1346" dy="16" x="299"><tspan id="SvgjsTspan1347" style="text-decoration:;">Main Executor</tspan></tspan></text></g></g><g id="SvgjsG1348" transform="translate(668.5,901.6363636363635)"><path id="SvgjsPath1349" d="M 0 0L 272.9999999999998 0L 272.9999999999998 61.818181818181756L 0 61.818181818181756Z" stroke="rgba(50,50,50,1)" stroke-width="2" fill-opacity="1" fill="#e57373"></path><g id="SvgjsG1350"><text id="SvgjsText1351" font-family="微软雅黑" text-anchor="middle" font-size="13px" width="253px" fill="#323232" font-weight="700" align="middle" lineHeight="125%" anchor="middle" family="微软雅黑" size="13px" weight="700" font-style="" opacity="1" y="20.284090909090878" transform="rotate(0)"><tspan id="SvgjsTspan1352" dy="16" x="136.5"><tspan id="SvgjsTspan1353" style="text-decoration:;">THEN(a, IF(x, b, c), WHEN(d, e));</tspan></tspan></text></g></g><g id="SvgjsG1354"><path id="SvgjsPath1355" d="M805 698.5454545454545L805 713.6006403990275L805 713.6006403990275L805 724.7558262526006" stroke="#e57373" stroke-width="3" fill="none" marker-end="url(#SvgjsMarker1356)"></path></g><g id="SvgjsG1358"><path id="SvgjsPath1359" d="M804.9999999999999 847.1307692307691L804.9999999999999 858.9436674436672L804.9999999999999 858.9436674436672L804.9999999999999 870.7565656565654" stroke="#e57373" stroke-width="3" fill="none" marker-start="url(#SvgjsMarker1360)" marker-end="url(#SvgjsMarker1362)"></path></g><g id="SvgjsG1364" transform="translate(817.1818181818179,846.939393939394)"><path id="SvgjsPath1365" d="M 0 0L 108.3181818181821 0L 108.3181818181821 24.242424242424022L 0 24.242424242424022Z" stroke="none" fill="none"></path><g id="SvgjsG1366"><text id="SvgjsText1367" font-family="微软雅黑" text-anchor="middle" font-size="13px" width="109px" fill="#e57373" font-weight="700" align="middle" lineHeight="125%" anchor="middle" family="微软雅黑" size="13px" weight="700" font-style="" opacity="1" y="1.496212121212011" transform="rotate(0)"><tspan id="SvgjsTspan1368" dy="16" x="54.5"><tspan id="SvgjsTspan1369" style="text-decoration:;">Exchange Data</tspan></tspan></text></g></g><g id="SvgjsG1370" transform="translate(346.81818181818215,846.939393939394)"><path id="SvgjsPath1371" d="M 0 0L 62.86363636363632 0L 62.86363636363632 24.242424242424022L 0 24.242424242424022Z" stroke="none" fill="none"></path><g id="SvgjsG1372"><text id="SvgjsText1373" font-family="微软雅黑" text-anchor="middle" font-size="13px" width="63px" fill="#e57373" font-weight="700" align="middle" lineHeight="125%" anchor="middle" family="微软雅黑" size="13px" weight="700" font-style="" opacity="1" y="1.496212121212011" transform="rotate(0)"><tspan id="SvgjsTspan1374" dy="16" x="31.5"><tspan id="SvgjsTspan1375" style="text-decoration:;">Get Chain</tspan></tspan></text></g></g><g id="SvgjsG1376"><path id="SvgjsPath1377" d="M323.7500000000001 847.1307692307691L323.7500000000001 858.9436674436672L323.7500000000001 858.9436674436672L323.7500000000001 874.6565656565654" stroke="#e57373" stroke-width="3" fill="none" marker-start="url(#SvgjsMarker1378)"></path></g><g id="SvgjsG1380" transform="translate(817.1818181818182,701.4631775035009)"><path id="SvgjsPath1381" d="M 0 0L 62.86363636363632 0L 62.86363636363632 24.242424242424022L 0 24.242424242424022Z" stroke="none" fill="none"></path><g id="SvgjsG1382"><text id="SvgjsText1383" font-family="微软雅黑" text-anchor="middle" font-size="13px" width="63px" fill="#e57373" font-weight="700" align="middle" lineHeight="125%" anchor="middle" family="微软雅黑" size="13px" weight="700" font-style="" opacity="1" y="1.496212121212011" transform="rotate(0)"><tspan id="SvgjsTspan1384" dy="16" x="31.5"><tspan id="SvgjsTspan1385" style="text-decoration:;">Generate</tspan></tspan></text></g></g><g id="SvgjsG1386"><path id="SvgjsPath1387" d="M623.5 919.5555555555552L645.8181818181818 919.5555555555552L645.8181818181818 919.5555555555552L664.2363636363636 919.5555555555552" stroke="#e57373" stroke-width="3" fill="none" marker-end="url(#SvgjsMarker1388)"></path></g><g id="SvgjsG1390" transform="translate(613.5454545454545,884.2121212121208)"><path id="SvgjsPath1391" d="M 0 0L 62.86363636363632 0L 62.86363636363632 24.242424242424022L 0 24.242424242424022Z" stroke="none" fill="none"></path><g id="SvgjsG1392"><text id="SvgjsText1393" font-family="微软雅黑" text-anchor="middle" font-size="12px" width="63px" fill="#e57373" font-weight="700" align="middle" lineHeight="125%" anchor="middle" family="微软雅黑" size="12px" weight="700" font-style="" opacity="1" y="2.121212121212011" transform="rotate(0)"><tspan id="SvgjsTspan1394" dy="15" x="31.5"><tspan id="SvgjsTspan1395" style="text-decoration:;">Execute</tspan></tspan></text></g></g><g id="SvgjsG1396" transform="translate(668.5000000000002,875.6565656565654)"><path id="SvgjsPath1397" d="M 0 0L 272.9999999999993 0L 272.9999999999993 25.97979797979815L 0 25.97979797979815Z" stroke="rgba(50,50,50,1)" stroke-width="2" fill-opacity="1" fill="#fff9c4"></path><g id="SvgjsG1398"><text id="SvgjsText1399" font-family="微软雅黑" text-anchor="middle" font-size="13px" width="253px" fill="#323232" font-weight="700" align="middle" lineHeight="125%" anchor="middle" family="微软雅黑" size="13px" weight="700" font-style="" opacity="1" y="2.364898989899075" transform="rotate(0)"><tspan id="SvgjsTspan1400" dy="16" x="136.5"><tspan id="SvgjsTspan1401" style="text-decoration:;">Rule</tspan></tspan></text></g></g></svg>